<?xml version="1.0" encoding="utf-8"?>
<!-- Generator: Adobe Illustrator 12.0.0, SVG Export Plug-In . SVG Version: 6.00 Build 51448)  -->
<!DOCTYPE svg PUBLIC "-//W3C//DTD SVG 1.1//EN" "http://www.w3.org/Graphics/SVG/1.1/DTD/svg11.dtd" [
	<!ENTITY ns_svg "http://www.w3.org/2000/svg">
	<!ENTITY ns_xlink "http://www.w3.org/1999/xlink">
]>
<svg  version="1.1" id="Layer_1" xmlns="&ns_svg;" xmlns:xlink="&ns_xlink;" width="446.455" height="446.454"
	 viewBox="0 0 446.455 446.454" overflow="visible" enable-background="new 0 0 446.455 446.454" xml:space="preserve">
<path d="M397.465,257.331c-1.566,8.039-3.667,15.883-6.275,23.49l37.108,30.701c-6.949,16.117-15.73,31.255-26.099,45.14
	l-45.156-16.786c-5.328,6.104-11.065,11.84-17.171,17.165l16.788,45.156c-13.883,10.37-29.021,19.154-45.136,26.099l-30.701-37.104
	c-7.61,2.608-15.454,4.708-23.49,6.271l-8.032,47.468c-8.555,0.995-17.251,1.523-26.074,1.523c-8.821,0-17.519-0.528-26.074-1.523
	l-8.032-47.468c-8.036-1.563-15.88-3.663-23.487-6.271l-30.704,37.104c-16.114-6.944-31.252-15.729-45.138-26.099l16.789-45.156
	c-6.104-5.325-11.841-11.062-17.169-17.165l-45.156,16.786c-10.371-13.888-19.15-29.022-26.098-45.14l37.107-30.705
	c-2.609-7.604-4.709-15.447-6.273-23.482l-47.469-8.033C0.528,240.746,0,232.049,0,223.227c0-8.822,0.529-17.519,1.524-26.075
	l47.468-8.032c1.564-8.036,3.664-15.88,6.273-23.487l-37.106-30.704c6.948-16.114,15.727-31.251,26.097-45.136l45.157,16.788
	c5.327-6.106,11.064-11.843,17.169-17.168l-16.79-45.158c13.887-10.368,29.024-19.149,45.138-26.097l30.704,37.106
	c7.607-2.609,15.452-4.708,23.487-6.273l8.032-47.467C205.708,0.529,214.406,0,223.227,0c8.823,0,17.52,0.529,26.074,1.524
	l8.032,47.467c8.036,1.564,15.88,3.664,23.488,6.273l30.703-37.107c16.113,6.947,31.253,15.727,45.136,26.098l-16.788,45.155
	c6.105,5.328,11.843,11.064,17.168,17.17l45.159-16.79c10.368,13.885,19.149,29.024,26.097,45.138l-37.106,30.701
	c2.608,7.61,4.709,15.455,6.273,23.49l47.468,8.032c0.994,8.557,1.524,17.253,1.524,26.075c0,8.822-0.53,17.519-1.524,26.074
	L397.465,257.331z"/>
<path fill="#3AB54A" d="M134.45,266.391L134.45,266.391l217.974-75.431c-14.426-57.937-66.793-100.874-129.197-100.874
	c-73.532,0-133.14,59.608-133.14,133.141c0,73.529,59.608,133.141,133.14,133.141c70.591,0,128.34-54.936,132.849-124.391
	L319.596,244.6c0,0.004,0,0.004,0,0.004c-9.769,44.229-49.2,77.32-96.369,77.32C184.199,321.924,150.465,299.266,134.45,266.391
	L134.45,266.391L134.45,266.391 M309.69,175.637l-183.853,63.625c-0.855-5.221-1.307-10.573-1.307-16.035
	c0-54.509,44.188-98.698,98.696-98.698C260.476,124.529,292.891,145.174,309.69,175.637z"/>
</svg>
