<svg xmlns="http://www.w3.org/2000/svg" xml:space="preserve" width="640" height="52" overflow="visible">
  <path fill="#3ab54a" d="m65.27 41.806-.046-.011-.046-.006c-2.165-.265-4.177-1.25-5.818-2.848-1.88-1.878-2.92-4.326-2.92-6.88l-.047-12.217c0-5.034 4.702-9.622 9.866-9.622h11.734c5.625 0 10.202 4.511 10.202 10.056 0 5.475-4.473 9.966-9.97 10.01l-.01.001c-2.53.047-9.238.047-11.764.047-.403 0-.688.155-.914.305l-.123.083-.093.116c-.499.624-.47 1.503.07 2.043.204.202.534.47 1.06.47h16.955c1.22 0 2.195.434 2.899 1.286.631.763.992 1.85.992 2.979 0 2.121-1.202 4.262-3.89 4.262H66.45c-.438-.001-.853-.001-1.18-.074zm1.18-23.06c-.421 0-.704.203-.856.313l-.125.088-.08.072c-.539.54-.569 1.418-.07 2.042l.093.117.124.082c.226.15.51.304.913.304h11.59c.49 0 .94-.192 1.236-.525.27-.307.39-.706.339-1.126l.006.119c0-.833-.672-1.484-1.532-1.484H66.45Zm46.954 14.512c.819 0 1.485-.665 1.485-1.485V14.197c0-2.712 2.164-3.927 4.31-3.927 2.146 0 4.31 1.215 4.31 3.927v17.577c0 .496 0 .853-.072 1.182l-.01.045-.005.047c-.293 2.386-1.18 4.19-2.88 5.848-1.777 1.82-4.57 2.984-7.137 2.984h-11.398c-2.567 0-5.362-1.165-7.122-2.969-1.659-1.618-2.548-3.43-2.898-5.882 0-.023-.086-1.254-.086-1.254V14.197c0-2.712 2.153-3.927 4.287-3.927 2.133 0 4.286 1.215 4.286 3.927v17.529c0 .86.695 1.533 1.581 1.533h11.35Zm24.162-22.988h17.576c2.713 0 3.927 2.165 3.927 4.31 0 2.146-1.214 4.31-3.927 4.31h-17.528a1.516 1.516 0 0 0-1.533 1.533v11.35c0 .86.653 1.533 1.485 1.533h11.399a1.46 1.46 0 0 0 1.479-1.473c0-.827-.636-1.448-1.479-1.448h-6.274c-2.738 0-3.963-2.165-3.963-4.31 0-2.146 1.224-4.311 3.963-4.311h6.274c.494 0 .852 0 1.18.074l.046.01.045.005c2.387.292 4.19 1.18 5.85 2.879 3.925 3.927 3.925 10.302.008 14.219-1.916 1.915-4.381 2.928-7.129 2.928h-11.4c-2.748 0-5.213-1.013-7.128-2.928-1.836-1.836-2.977-4.586-2.977-7.178V20.376c0-2.566 1.165-5.362 2.968-7.122 1.663-1.662 3.475-2.553 5.884-2.898.003.001 1.254-.086 1.254-.086zm33.97 31.536-.045-.011-.046-.006c-2.24-.273-4.297-1.292-5.79-2.869a9.772 9.772 0 0 1-2.947-6.956c-.048-2.053.81-3.87 2.414-5.139l1.004-.794-1.046-.739c-1.749-1.238-2.372-3.376-2.372-4.965 0-2.72 1.038-5.232 2.92-7.074 1.875-1.977 4.206-2.664 5.836-2.897l.036-.005.036-.008c.329-.073.65-.073 1.134-.073h17.624c2.714 0 3.927 2.14 3.927 4.263 0 2.121-1.214 4.262-3.927 4.262h-17.576c-.86 0-1.532.663-1.532 1.509 0 .846.672 1.508 1.532 1.508h17.912l.447.052.171.025.107.039c.024.006-.052-.025-.052-.025l.089.036.178.034a.042.042 0 0 1 .01.004l-.091-.017.13.028.545.16c-.43-.1.24.097.24.097l-.345-.082.248.148.099.072-.01-.005.226.136.154.112.001.002-.018-.013.02.014.236.322.118.04.124.168-.063-.071c.015.022.207.263.207.263l-.064-.072c.014.02.156.2.193.246l.043.08a.37.37 0 0 0-.006-.034c.021.03.03.04.047.062.057.117.14.283.158.317l-.024-.032.01.028-.037-.042.042.054.208.563.059.181-.048-.302.072.423a8.158 8.158 0 0 0-.024-.183l.006.045.042.167v.111s.029.096.055.191l.04.262v.182l.048.3v.363l-.047.297v.203l-.048.275c0 .03.053-.19.053-.19l-.027.11-.074.319v.03l.042-.175-.09.385.028-.191a47.622 47.622 0 0 0-.076.43l.039-.27c-.313 1.068-1.212 2.855-3.727 2.855h-17.576c-.86 0-1.532.664-1.532 1.51 0 .845.672 1.507 1.532 1.507h17.576c2.714 0 3.927 2.142 3.927 4.263 0 2.122-1.214 4.262-3.927 4.262H172.67c-.485-.002-.805-.002-1.134-.075zM197.89 38V20.232c0-.44 0-.853.073-1.182l.01-.045.005-.046c.272-2.213 1.27-4.239 2.889-5.857 3.922-3.922 10.342-3.92 14.31.004 1.884 1.885 2.925 4.348 2.925 6.934l.048 11.834c0 .485.19.935.526 1.23.306.271.706.39 1.126.338l-.12.008c.833 0 1.485-.673 1.485-1.533v-17.72c0-2.737 2.153-3.963 4.286-3.963 2.133 0 4.287 1.226 4.287 3.963v17.624c0 5.652-4.534 10.25-10.105 10.25-5.528 0-10.062-4.493-10.105-10.017V20.232c0-.38-.168-.756-.473-1.06-.539-.54-1.416-.57-2.042-.07l-.116.092-.083.124c-.196.295-.304.62-.304.915V38c0 2.713-2.165 3.927-4.31 3.927-2.147 0-4.312-1.214-4.312-3.927zm44.383 3.806-.046-.011-.046-.006c-2.241-.273-4.297-1.292-5.79-2.869a9.773 9.773 0 0 1-2.947-6.956c-.048-2.053.81-3.87 2.414-5.139l1.005-.794-1.046-.739c-1.749-1.238-2.373-3.376-2.373-4.965 0-2.72 1.038-5.232 2.922-7.074 1.874-1.977 4.205-2.664 5.836-2.897l.035-.005.036-.008c.328-.073.648-.073 1.133-.073h17.625c2.712 0 3.927 2.14 3.927 4.263 0 2.121-1.215 4.262-3.927 4.262h-17.577c-.86 0-1.533.663-1.533 1.509 0 .846.673 1.508 1.533 1.508h17.912l.446.052.17.025.108.039c.024.006-.053-.025-.053-.025l.09.036.177.034.011.004-.092-.017.13.028.544.16c-.429-.1.238.097.238.097l-.344-.082.248.148.099.072-.01-.005.227.136.153.112c.002 0 .002 0 .002.002l-.019-.013a.424.424 0 0 0 .02.014l.237.322.12.04c.057.08.123.168.123.168l-.063-.071c.016.022.207.263.207.263l-.062-.072c.013.02.156.2.191.246l.044.08h.001l-.007-.034.046.062.159.317-.023-.032.01.028-.036-.042.041.054.21.563.059.181-.05-.302.073.423a4.992 4.992 0 0 0-.024-.183l.006.045.041.167v.111l.056.191.04.262v.182l.048.3v.363c-.022.13-.047.297-.047.297v.203l-.048.275c0 .03.053-.19.053-.19l-.027.11-.075.319v.03l.044-.175-.09.385.028-.191c-.004.007-.077.43-.077.43l.04-.27c-.313 1.068-1.212 2.855-3.726 2.855h-17.578c-.86 0-1.532.664-1.532 1.51 0 .845.673 1.507 1.532 1.507h17.578c2.712 0 3.926 2.142 3.926 4.263 0 2.122-1.214 4.262-3.926 4.262h-17.625c-.487-.002-.807-.002-1.135-.075z"/>
  <path d="M300.35 19.996c0-2.589 1.04-5.053 2.928-6.941 3.944-3.944 10.362-3.944 14.305 0 1.565 1.565 2.564 3.597 2.89 5.876 0 .022.087 1.253.087 1.253v17.768c0 2.713-2.164 3.928-4.31 3.928-2.144 0-4.31-1.215-4.31-3.928V20.184c0-.296-.108-.62-.304-.915l-.082-.124-.117-.092c-.624-.5-1.502-.47-2.042.07-.304.304-.472.68-.472 1.06v11.83c-.045 5.515-4.577 10.008-10.105 10.008-5.529 0-10.062-4.493-10.105-10.016l-.048-11.84c0-.277-.108-.6-.304-.896l-.054-.079-.067-.067c-.564-.565-1.556-.565-2.12 0l-.068.067-.024.036h-.38v18.726c0 2.712-2.154 3.927-4.286 3.927-2.134 0-4.288-1.215-4.288-3.927V20.184c0-.438 0-.853.073-1.181l.01-.046.006-.046c.27-2.213 1.27-4.238 2.887-5.857 3.932-3.93 10.327-3.93 14.259 0 1.922 1.878 2.976 4.34 2.976 6.938V31.82c0 .49.193.94.526 1.235.277.245.632.364 1.006.346a1.33 1.33 0 0 0 .946-.326c.343-.298.538-.754.538-1.255v.005zm24.82-5.463c0-2.122 1.217-4.263 3.93-4.263h16.857c.496 0 .854 0 1.182.073l.046.01.045.007a9.827 9.827 0 0 1 5.809 2.839c1.923 1.879 2.977 4.323 2.977 6.89v12.165c0 5.129-4.61 9.626-9.867 9.626h-11.688c-5.597 0-10.152-4.512-10.152-10.059 0-5.448 4.472-9.917 9.97-9.96h.01c2.434-.048 9.142-.048 11.668-.048.406 0 .792-.155 1.061-.424a1.536 1.536 0 0 0 .457-1.157c-.018-.34-.183-.644-.418-.89a1.38 1.38 0 0 0-1.1-.547H329.1c-2.712 0-3.929-2.14-3.929-4.262zm9.245 15.803c-.901 0-1.58.66-1.58 1.534 0 .846.679 1.484 1.58 1.484h11.541c.454 0 .79-.23.984-.404a1.422 1.422 0 0 0 .537-1.11c0-.395-.165-.785-.46-1.08a1.505 1.505 0 0 0-1.06-.424zm28.24 11.264c-1.557-.639-2.451-1.95-2.451-3.6V14.15c0-2.738 2.153-3.963 4.287-3.963s4.288 1.225 4.288 3.963v13.319L384.5 11.37c.862-.861 1.902-1.268 3.002-1.169.996.09 2.03.602 2.83 1.405 1.512 1.51 2.17 3.902.23 5.84l-8.476 8.632 8.523 8.574c1.916 1.915 1.249 4.296-.262 5.806-1.512 1.51-3.892 2.178-5.806.265l-8.491-8.49-8.292 8.447c-1.242 1.262-3.34 1.641-5.102.92zm41.277.206-.046-.011-.046-.006c-2.165-.265-4.177-1.25-5.818-2.848-1.88-1.878-2.92-4.326-2.92-6.88l-.048-12.217c0-5.034 4.703-9.622 9.867-9.622h11.734c5.626 0 10.2 4.511 10.2 10.056 0 5.475-4.47 9.966-9.968 10.01l-.01.001c-2.53.047-9.239.047-11.764.047-.404 0-.688.155-.915.305l-.123.083-.094.116c-.499.624-.468 1.503.07 2.043.203.202.534.47 1.062.47h16.953c2.689 0 3.892 2.142 3.892 4.264 0 2.121-1.203 4.262-3.892 4.262h-16.953c-.438 0-.852 0-1.18-.073zm1.18-23.06c-.42 0-.704.203-.856.313l-.126.088-.078.072c-.54.54-.57 1.418-.07 2.042l.093.117.123.082c.227.15.512.304.915.304h11.59c.489 0 .939-.192 1.234-.525.272-.307.391-.706.338-1.126l.008.119c0-.833-.674-1.484-1.533-1.484h-11.637zm25.45 19.206V14.197c0-2.712 2.142-3.927 4.263-3.927h17.432c5.653 0 10.251 4.534 10.251 10.106 0 5.47-4.403 9.823-10.023 9.913h-1.472v.406c-.018.014-.04.02-.056.037-.295.254-.483.609-.503.993l-.003.078c0 .396.165.785.46 1.08.268.27.656.423 1.06.423h6.657c2.713 0 3.927 2.166 3.927 4.31 0 2.146-1.214 4.311-3.927 4.311h-6.656c-2.64 0-5.24-1.085-7.13-2.976-2.183-2.183-2.64-5.16-2.64-7.274 0-.91-.644-1.598-1.498-1.598-.738 0-1.52.577-1.52 1.646v6.227c0 2.737-2.166 3.963-4.31 3.963-2.147 0-4.311-1.225-4.311-3.963zm8.622-19.11v3.018h13.122c.49 0 .939-.192 1.234-.527a1.415 1.415 0 0 0 .339-1.125l.007.12c0-.834-.673-1.485-1.533-1.485zm27.257 18.775c0-2.122 1.225-4.263 3.963-4.263h17.48c.826 0 1.456-.542 1.572-1.349l.009-.067v-.068c0-.832-.714-1.485-1.629-1.485l-11.73-.05c-2.67 0-5.083-1.026-6.98-2.967a9.863 9.863 0 0 1-2.962-7.064 9.86 9.86 0 0 1 2.95-7.054c1.621-1.621 3.646-2.62 5.86-2.891l.035-.005.036-.007c.387-.077.75-.077 1.25-.077h17.672c2.713 0 3.927 2.14 3.927 4.263 0 2.121-1.214 4.262-3.927 4.262h-17.671c-.406 0-.792.155-1.06.424a1.535 1.535 0 0 0-.463 1.08 1.415 1.415 0 0 0 .537 1.107c.195.177.53.406.986.406h11.733c5.515.044 10.01 4.556 10.01 10.058 0 5.519-4.6 10.01-10.25 10.01h-17.385c-2.738-.001-3.963-2.142-3.963-4.263zm35.28.526V14.197c0-2.712 2.116-3.927 4.215-3.927h17.48c5.625 0 10.201 4.534 10.201 10.106 0 5.483-4.497 10.017-10.023 10.104h-13.3v7.663c0 2.738-2.154 3.965-4.286 3.965-2.135 0-4.288-1.227-4.288-3.965zm8.572-19.3v3.017h13.17c.902 0 1.582-.659 1.582-1.533v-.068l-.011-.067c-.117-.807-.747-1.35-1.572-1.35zm26.963 19.3v-17.72c0-5.598 4.597-10.153 10.25-10.153l11.78.048c5.28 0 9.913 4.499 9.913 9.626v18.2c0 2.737-2.165 3.965-4.31 3.965-2.144 0-4.31-1.227-4.31-3.965v-7.61l-13.304-.053h-1.399v7.663c0 2.737-2.164 3.965-4.31 3.965-2.144-.001-4.31-1.228-4.31-3.966zM547.41 18.89c-.856 0-1.527.658-1.527 1.497 0 .867.678 1.521 1.575 1.521h11.59c.864 0 1.514-.643 1.514-1.496a1.502 1.502 0 0 0-1.513-1.522zm35.847-8.62h17.577c2.737 0 3.963 2.165 3.963 4.31 0 2.146-1.225 4.31-3.963 4.31h-17.529a1.517 1.517 0 0 0-1.533 1.533v11.35a1.517 1.517 0 0 0 1.533 1.533h17.529c2.737 0 3.963 2.152 3.963 4.287 0 2.133-1.225 4.287-3.963 4.287h-17.577c-.438 0-.853 0-1.182-.073l-.043-.011-.048-.006c-2.345-.286-4.205-1.188-5.856-2.84-1.806-1.848-2.977-4.669-2.977-7.177V20.376c0-2.524 1.168-5.322 2.977-7.13 1.654-1.654 3.466-2.545 5.876-2.89.002.001 1.253-.086 1.253-.086zm33.631 31.536-.046-.011-.045-.006c-2.243-.273-4.297-1.292-5.791-2.869a9.773 9.773 0 0 1-2.947-6.956c-.049-2.053.81-3.87 2.414-5.139l1.006-.794-1.046-.739c-1.75-1.238-2.373-3.376-2.373-4.965 0-2.72 1.038-5.232 2.92-7.074 1.874-1.977 4.206-2.664 5.836-2.897l.037-.005.035-.008c.329-.073.649-.073 1.133-.073h17.625c2.713 0 3.927 2.14 3.927 4.263 0 2.121-1.214 4.262-3.927 4.262H618.07c-.859 0-1.533.663-1.533 1.509 0 .846.674 1.508 1.533 1.508h17.911l.448.052.17.025.108.039c.023.006-.053-.025-.053-.025l.088.036.177.034.012.004-.091-.017.13.028.543.16c-.429-.1.241.097.24.097l-.344-.082.25.148.096.072-.01-.005.228.136a10.374 10.374 0 0 0 .156.114l-.018-.013.018.014.237.322.118.04c.057.08.123.168.123.168l-.061-.071c.015.022.205.263.205.263l-.062-.072c.013.02.157.2.192.246.018.036.043.08.043.08h.001l-.007-.034.047.062c.057.117.14.283.158.317l-.023-.032.01.028-.037-.042.042.054.209.563.06.181-.05-.302.073.423a5.088 5.088 0 0 0-.025-.183l.008.045.04.167v.111s.03.096.055.191l.04.262v.182l.049.3v.363l-.049.297v.203l-.048.275c0 .03.054-.19.054-.19l-.028.11-.073.319v.03l.043-.175-.09.385.027-.191c-.003.007-.076.43-.076.43l.039-.27c-.312 1.068-1.212 2.855-3.726 2.855H618.07c-.86 0-1.533.664-1.533 1.51 0 .845.674 1.507 1.533 1.507h17.576c2.713 0 3.927 2.142 3.927 4.263 0 2.122-1.214 4.262-3.927 4.262h-17.625c-.485-.002-.805-.002-1.134-.075zM38.966 29.485a17.377 17.377 0 0 1-.621 2.327l3.678 3.043a22.041 22.041 0 0 1-2.587 4.474l-4.475-1.664a17.82 17.82 0 0 1-1.702 1.702l1.664 4.476a22.113 22.113 0 0 1-4.474 2.585l-3.042-3.677c-.755.259-1.532.467-2.328.62l-.797 4.705c-.848.1-1.71.153-2.584.153-.874 0-1.736-.054-2.584-.153l-.796-4.705a17.48 17.48 0 0 1-2.328-.62l-3.043 3.677a22.143 22.143 0 0 1-4.474-2.585l1.665-4.476a17.722 17.722 0 0 1-1.702-1.702L3.96 39.33a22.124 22.124 0 0 1-2.586-4.474l3.677-3.043a17.505 17.505 0 0 1-.621-2.327l-4.705-.796a22.425 22.425 0 0 1-.15-2.584c0-.875.052-1.737.15-2.585l4.705-.796c.155-.796.363-1.574.621-2.328l-3.677-3.042A22.157 22.157 0 0 1 3.96 12.88l4.476 1.664a17.626 17.626 0 0 1 1.702-1.702L8.473 8.367a22.146 22.146 0 0 1 4.474-2.587l3.043 3.677a17.486 17.486 0 0 1 2.328-.622l.796-4.704a22.402 22.402 0 0 1 5.168 0l.797 4.705a17.52 17.52 0 0 1 2.328.622l3.042-3.678a22.054 22.054 0 0 1 4.474 2.587l-1.664 4.475a17.919 17.919 0 0 1 1.702 1.702l4.475-1.664a22.127 22.127 0 0 1 2.587 4.474l-3.678 3.042c.258.754.467 1.532.621 2.328l4.705.796c.098.848.151 1.71.151 2.585s-.053 1.736-.151 2.584z"/>
  <path fill="#3ab54a" d="m12.9 30.383 21.603-7.477c-1.43-5.741-6.62-9.997-12.805-9.997-7.288 0-13.195 5.908-13.195 13.196 0 7.288 5.908 13.195 13.195 13.195 6.997 0 12.72-5.445 13.167-12.329l-3.616 1.253c-.968 4.383-4.875 7.662-9.551 7.662a9.78 9.78 0 0 1-8.798-5.503m17.367-8.994-18.221 6.304a9.797 9.797 0 0 1-.13-1.588 9.781 9.781 0 0 1 9.782-9.782 9.775 9.775 0 0 1 8.57 5.066z"/>
</svg>
